# AST/ASF file generated using VICON BodyLanguage
# -----------------------------------------------
:version 1.10
:name VICON
:units
  mass 1.0
  length 0.45
  angle deg
:documentation
   .ast/.asf automatically generated from VICON data using
   VICON BodyBuilder and BodyLanguage model FoxedUp or BRILLIANT.MOD
:root
   order TX TY TZ RX RY RZ
   axis XYZ
   position 0 0 0  
   orientation 0 0 0 
:bonedata
  begin
     id 1 
     name lhipjoint
     direction 0.558404 -0.748506 0.357664 
     length 2.4234 
     axis 0 0 0  XYZ
  end
  begin
     id 2 
     name lfemur
     direction 0.34202 -0.939693 0  
     length 7.14567  
     axis 0 0 20  XYZ
    dof rx ry rz
    limits (-160.0 20.0)
           (-70.0 70.0)
           (-60.0 70.0)
  end
  begin
     id 3 
     name ltibia
     direction 0.34202 -0.939693 0   
     length 8.13956   
     axis 0 0 20   XYZ
    dof rx
    limits (-10.0 170.0)
  end
  begin
     id 4 
     name lfoot
     direction 0.0791314 -0.217412 0.972867   
     length 2.00134   
     axis -90 7.62852e-016 20   XYZ
    dof rx rz
    limits (-45.0 90.0)
           (-70.0 20.0)
  end
  begin
     id 5 
     name ltoes
     direction 1.53547e-011 -4.21922e-011 1   
     length 1.00735   
     axis -90 7.62852e-016 20   XYZ
    dof rx
    limits (-90.0 20.0)
  end
  begin
     id 6 
     name rhipjoint
     direction -0.496392 -0.78327 0.374276   
     length 2.31584  
     axis 0 0 0  XYZ 
  end
  begin
     id 7 
     name rfemur
     direction -0.34202 -0.939693 0   
     length 7.47417   
     axis 0 0 -20   XYZ
    dof rx ry rz
    limits (-160.0 20.0)
           (-70.0 70.0)
           (-70.0 60.0)
  end
  begin
     id 8 
     name rtibia
     direction -0.34202 -0.939693 0   
     length 7.69071   
     axis 0 0 -20   XYZ
    dof rx
    limits (-10.0 170.0)
 end
 begin
     id 9 
     name rfoot
     direction -0.103069 -0.28318 0.953512   
     length 2.16135  
     axis -90 -7.62852e-016 -20   XYZ
    dof rx rz
    limits (-45.0 90.0)
           (-20.0 70.0)
  end
  begin
     id 10 
     name rtoes
     direction -1.53581e-011 -4.21904e-011 1   
     length 1.07867   
     axis -90 -7.62852e-016 -20   XYZ
    dof rx
    limits (-90.0 20.0)
  end
  begin
     id 11 
     name lowerback
     direction -0.0258961 0.994776 -0.0987407   
     length 2.19412   
     axis 0 0 0   XYZ
    dof rx ry rz
    limits (-20.0 45.0)
           (-30.0 30.0)
           (-30.0 30.0)
  end
  begin
     id 12 
     name upperback
     direction 0.0402454 0.999185 0.00320666   
     length 2.18445   
     axis 0 0 0   XYZ
    dof rx ry rz
    limits (-20.0 45.0)
           (-30.0 30.0)
           (-30.0 30.0)
  end
  begin
     id 13 
     name thorax
     direction 0.0519376 0.997415 0.0496558   
     length 2.21487   
     axis 0 0 0   XYZ
    dof rx ry rz
    limits (-20.0 45.0)
           (-30.0 30.0)
           (-30.0 30.0)
  end
  begin
     id 14 
     name lowerneck
     direction -0.0921276 0.983211 0.157506   
     length 1.61201   
     axis 0 0 0   XYZ
    dof rx ry rz
    limits (-20.0 45.0)
           (-30.0 30.0)
           (-30.0 30.0)
  end
  begin
     id 15 
     name upperneck
     direction 0.0820814 0.98162 -0.172292   
     length 1.65275   
     axis 0 0 0   XYZ
    dof rx ry rz
    limits (-20.0 45.0)
           (-30.0 30.0)
           (-30.0 30.0)
  end
  begin
     id 16
     name head
     direction 0.0336554 0.996413 -0.0776455  
     length 1.66415  
     axis 0 0 0   XYZ
    dof rx ry rz
    limits (-20.0 45.0)
           (-30.0 30.0)
           (-30.0 30.0)
  end
  begin
     id 17 
     name lclavicle
     direction 0.94696 0.284418 -0.149576  
     length 3.41447  
     axis 0 0 0   XYZ
    dof ry rz
    limits (-20.0 10.0)
           (0.0 20.0)
  end
  begin
     id 18 
     name lhumerus
     direction 1 -0.000130264 -9.81312e-005   
     length 5.19964   
     axis 180 -30 -90   XYZ
    dof rx ry rz
    limits (-60.0 90.0)
           (-90.0 90.0)
           (-90.0 90.0)
  end
  begin
     id 19
     name lradius
     direction 1 -4.48961e-011 1.43854e-026   
     length 3.32189   
     axis 180 -30 -90   XYZ
    dof rx
    limits (-10.0 170.0)
  end
  begin
     id 20
     name lwrist
     direction 1 -4.48958e-011 3.1502e-026   
     length 1.66095   
     axis -1.97692e-014 90 90   XYZ
    dof ry
    limits (-180.0 0.0)
 end
  begin
     id 21 
     name lhand
     direction 1 -4.48927e-011 6.3004e-026   
     length 0.645616   
     axis -4.02019e-014 90 90   XYZ
    dof rx rz
    limits (-90.0 90.0)
           (-45.0 45.0)
  end
  begin
     id 22 
     name lfingers
     direction 1 -4.4904e-011 1.26008e-025   
     length 0.520512   
     axis -8.04039e-014 90 90   XYZ
    dof rx
    limits (0.0 90.0)
  end
  begin
     id 23
     name lthumb
     direction 0.707107 -6.34947e-011 0.707107   
     length 0.747354   
     axis -90 45 2.85299e-015   XYZ
    dof rx rz
    limits (-45.0 45.0)
           (-45.0 45.0)
  end
  begin
     id 24 
     name rclavicle
     direction -0.909391 0.383475 -0.161107   
     length 3.25176  
     axis 0 0 0   XYZ 
    dof ry rz
    limits (-10.0 20.0)
           (-20.0 0.0)
  end
  begin
     id 25 
     name rhumerus
     direction -1 -4.48965e-011 -1.81384e-027  
     length 5.6595   
     axis 180 30 90   XYZ
    dof rx ry rz
    limits (-90.0 60.0)
           (-90.0 90.0)
           (-90.0 90.0)
  end
  begin
     id 26 
     name rradius
     direction -1 -4.48996e-011 -8.09397e-027   
     length 3.37604   
     axis 180 30 90   XYZ
    dof rx
    limits (-10.0 170.0)
  end
  begin
     id 27 
     name rwrist
     direction -1 -4.48927e-011 -1.56669e-026   
     length 1.68802   
     axis 1.21142e-014 -90 -90   XYZ
    dof ry
    limits (-180.0 0.0)
  end
  begin
     id 28
     name rhand
     direction -1 -4.48912e-011 -3.13339e-026   
     length 0.824702   
     axis 1.99937e-014 -90 -90   XYZ
    dof rx rz
    limits (-90.0 90.0)
           (-45.0 45.0)
  end
  begin
     id 29
     name rfingers
     direction -1 -4.49011e-011 -6.26677e-026   
     length 0.664896   
     axis 3.99874e-014 -90 -90   XYZ
    dof rx
    limits (0.0 90.0)
  end
  begin
     id 30
     name rthumb
     direction -0.707107 -6.34931e-011 0.707107   
     length 0.954662   
     axis -90 -45 -2.85299e-015   XYZ
    dof rx rz
    limits (-45.0 45.0)
           (-45.0 45.0)
  end
:hierarchy
  begin
    root lhipjoint rhipjoint lowerback
    lhipjoint lfemur
    lfemur ltibia
    ltibia lfoot
    lfoot ltoes
    rhipjoint rfemur
    rfemur rtibia
    rtibia rfoot
    rfoot rtoes
    lowerback upperback
    upperback thorax
    thorax lowerneck lclavicle rclavicle
    lowerneck upperneck
    upperneck head
    lclavicle lhumerus
    lhumerus lradius
    lradius lwrist
    lwrist lhand lthumb
    lhand lfingers
    rclavicle rhumerus
    rhumerus rradius
    rradius rwrist
    rwrist rhand rthumb
    rhand rfingers
  end

#!OML:ASF F:\VICON\USERDATA\INSTALL\rory3\rory3.ASF
:FULLY-SPECIFIED
:DEGREES
151
root 9.31848 17.7581 -14.2113 2.37327 -28.2584 -4.24732
lowerback 1.65937 1.54254 -0.428132
upperback -1.32443 2.1151 3.65433
thorax -2.44736 1.09343 3.92565
lowerneck -17.1464 -2.59706 -12.3239
upperneck 22.407 -2.63425 9.58038
head 10.273 -1.17766 5.1481
rclavicle 6.52014e-014 -4.37326e-015
rhumerus -37.8585 -22.1583 -61.5812
rradius 30.9037
rwrist -11.1172
rhand -7.75644 18.8664
rfingers 7.12502
rthumb 18.1432 -10.3074
lclavicle 6.52014e-014 -4.37326e-015
lhumerus -27.6605 11.524 73.2335
lradius 22.6793
lwrist -13.7349
lhand -1.19669 32.5403
lfingers 7.12502
lthumb 24.4437 61.0007
rfemur -10.91 2.77025 16.4147
rtibia 34.8523
rfoot -19.0506 -9.99093
rtoes 8.21711
lfemur -8.28867 -2.7452 -16.4768
ltibia 35.0966
lfoot -23.6707 8.53691
ltoes 0.0334869
152
root 9.31982 17.7597 -14.2174 2.4085 -28.3757 -4.24375
lowerback 1.72127 1.57961 -0.430952
upperback -1.39581 2.16775 3.65923
thorax -2.56002 1.12161 3.9277
lowerneck -17.1024 -2.64473 -12.1907
upperneck 22.4595 -2.70398 9.4039
head 10.2887 -1.22059 5.05156
rclavicle 1.91703e-014 -1.59028e-015
rhumerus -37.9958 -22.3233 -61.4328
rradius 31.0232
rwrist -10.9621
rhand -8.1112 18.6117
rfingers 7.12502
rthumb 17.8018 -10.5934
lclavicle 1.91703e-014 -1.59028e-015
lhumerus -27.6958 11.8903 73.0708
lradius 22.5826
lwrist -13.8912
lhand -0.737004 33.125
lfingers 7.12502
lthumb 24.8843 61.5253
rfemur -11.0339 2.71885 16.407
rtibia 34.8729
rfoot -19.008 -10.0107
rtoes 7.91135
lfemur -8.32757 -2.73199 -16.5012
ltibia 35.1097
lfoot -23.6482 8.80433
ltoes -0.936213
153
root 9.32109 17.7625 -14.2309 2.51749 -28.5294 -4.30643
lowerback 1.74581 1.61514 -0.411193
upperback -1.42494 2.21758 3.69284
thorax -2.60822 1.14717 3.94836
lowerneck -17.0456 -2.68161 -12.1303
upperneck 22.3448 -2.75427 9.32555
head 10.2413 -1.24672 5.00071
rclavicle 5.49018e-014 -1.98785e-014
rhumerus -37.9591 -22.4367 -61.4395
rradius 31.1703
rwrist -10.9517
rhand -8.49345 18.3667
rfingers 7.12502
rthumb 17.434 -10.8715
lclavicle 5.49018e-014 -1.98785e-014
lhumerus -27.5853 12.199 72.9542
lradius 22.4244
lwrist -13.989
lhand -0.577687 33.2352
lfingers 7.12502
lthumb 25.0369 61.6143
rfemur -11.2461 2.84059 16.5015
rtibia 34.9028
rfoot -18.8534 -10.2792
rtoes 6.61222
lfemur -8.45272 -2.57757 -16.4167
ltibia 35.1259
lfoot -23.5862 8.91879
ltoes -1.84521
154
root 9.32242 17.7637 -14.2407 2.59927 -28.8773 -4.31465
lowerback 1.75643 1.64814 -0.492922
upperback -1.45738 2.26219 3.78411
thorax -2.6583 1.17266 4.08702
lowerneck -16.9802 -2.62466 -12.1954
upperneck 22.2859 -2.65838 9.31843
head 10.1965 -1.20929 5.01987
rclavicle 2.1096e-014 -1.59028e-015
rhumerus -37.7817 -21.9485 -61.6976
rradius 31.418
rwrist -11.8142
rhand -8.69891 18.1847
rfingers 7.12502
rthumb 17.2362 -11.0709
lclavicle 2.1096e-014 -1.59028e-015
lhumerus -27.6147 12.3951 72.9334
lradius 22.3534
lwrist -13.861
lhand -0.635591 33.0588
lfingers 7.12502
lthumb 24.9814 61.4456
rfemur -11.4419 3.1188 16.4972
rtibia 34.9301
rfoot -18.7742 -10.2051
rtoes 6.721
lfemur -8.52866 -2.38749 -16.432
ltibia 35.1472
lfoot -23.6227 9.06109
ltoes -1.80375
155
root 9.32484 17.7645 -14.2421 2.65839 -29.2813 -4.3233
lowerback 1.72423 1.64783 -0.544281
upperback -1.48415 2.26236 3.89062
thorax -2.67462 1.17509 4.22775
lowerneck -17.0003 -2.51742 -12.1318
upperneck 22.3451 -2.4833 9.15186
head 10.197 -1.14279 4.97339
rclavicle -4.96713e-014 -4.77083e-015
rhumerus -37.5362 -21.0914 -62.2006
rradius 31.8455
rwrist -13.4249
rhand -9.2961 17.6934
rfingers 7.12502
rthumb 16.6614 -11.6115
lclavicle -4.96713e-014 -4.77083e-015
lhumerus -27.7449 12.753 72.8628
lradius 22.296
lwrist -13.9884
lhand -0.519051 32.8556
lfingers 7.12502
lthumb 25.0931 61.2268
rfemur -11.5876 3.36795 16.4478
rtibia 34.9597
rfoot -18.7872 -9.92343
rtoes 7.63941
lfemur -8.53825 -2.33578 -16.5008
ltibia 35.1525
lfoot -23.7151 9.30131
ltoes -1.00612
156
root 9.32679 17.7654 -14.24 2.73363 -29.5897 -4.45442
lowerback 1.6853 1.64581 -0.41093
upperback -1.49235 2.26362 3.95596
thorax -2.65877 1.17345 4.22136
lowerneck -17.0278 -2.46019 -11.8784
upperneck 22.3369 -2.40376 8.8874
head 10.1833 -1.11391 4.84301
rclavicle -3.40419e-014 7.15625e-015
rhumerus -37.4753 -20.5479 -62.5564
rradius 32.3369
rwrist -14.6341
rhand -9.76441 17.2494
rfingers 7.12502
rthumb 16.2105 -12.0928
lclavicle -3.40419e-014 7.15625e-015
lhumerus -27.6726 13.0578 72.7257
lradius 21.9563
lwrist -14.2228
lhand -0.427621 32.4707
lfingers 7.12502
lthumb 25.1807 60.8297
rfemur -11.6426 3.56141 16.516
rtibia 34.9898
rfoot -18.9064 -9.59289
rtoes 8.68421
lfemur -8.48926 -2.30477 -16.4396
ltibia 35.1342
lfoot -23.7498 9.514
ltoes -0.253172
